<svg xmlns="http://www.w3.org/2000/svg" viewBox="0 0 120.29 116.28"><defs><style>.cls-1{fill:#1f30c1;}</style></defs><title>Asset 3</title><g id="Layer_2" data-name="Layer 2"><g id="Layer_1-2" data-name="Layer 1"><path class="cls-1" d="M0,53.41a30.68,30.68,0,0,0,2.76-1.52c1.14-.71,2-1.28,2.61-1.72.38.43,1.13,1.16,2.24,2.16a26,26,0,0,0,2.46,2,8.81,8.81,0,0,0-1,.51c-.68.37-1.48.84-2.38,1.4l-2,1.3c-.56-.59-1.38-1.37-2.44-2.32A21.58,21.58,0,0,0,0,53.41Z"/><path class="cls-1" d="M15.65,35.06l-1.17-.59a2.65,2.65,0,0,1,.11,3,3.14,3.14,0,0,1-.78,1,2.2,2.2,0,0,1-1.14.5,2.17,2.17,0,0,1-1.34-.24,2.46,2.46,0,0,1-.85-.68,1.82,1.82,0,0,1-.36-.84,3.93,3.93,0,0,1,0-.91,5,5,0,0,1,.21-.95c.11-.31.2-.61.29-.91s.16-.56.23-.8a1.37,1.37,0,0,0,0-.63.59.59,0,0,0-.31-.41.73.73,0,0,0-.69,0,1.27,1.27,0,0,0-.56.6,1.17,1.17,0,0,0-.13.89,1.09,1.09,0,0,0,.59.63L8.58,37.1a2.83,2.83,0,0,1-.93-.72,2.34,2.34,0,0,1-.5-.91,3,3,0,0,1-.12-1,4.6,4.6,0,0,1,.18-1.1,7.54,7.54,0,0,1,.44-1.09,6.77,6.77,0,0,1,.61-1A4.51,4.51,0,0,1,9,30.48a3.15,3.15,0,0,1,.86-.5,2.36,2.36,0,0,1,1-.13,3,3,0,0,1,1,.3l5,2.53ZM12.33,36.2a.64.64,0,0,0,.6,0,1.08,1.08,0,0,0,.46-.5,1.53,1.53,0,0,0,.15-1.13,1.36,1.36,0,0,0-.76-.86l-.45-.22a3.85,3.85,0,0,1-.1.8c-.07.32-.14.59-.19.81a1.39,1.39,0,0,0,0,.64A.6.6,0,0,0,12.33,36.2Z"/><path class="cls-1" d="M12.14,28.71l-1.72-1.24,4.35-6,1.72,1.25-1.35,1.86,5,3.59-1.65,2.28-5-3.59Z"/><path class="cls-1" d="M17.1,22,15.58,20.5l5.18-5.31,1.52,1.49-1.61,1.65,4.38,4.27-2,2-4.38-4.28Z"/><path class="cls-1" d="M31.12,12.44c.09.12.21.31.37.55L26.8,16.47a1.53,1.53,0,0,0,2.2.17,1.24,1.24,0,0,0,.64-1.35l2.17-1.61a3.73,3.73,0,0,1,.12,2.58,4.46,4.46,0,0,1-1.67,2.16,4.14,4.14,0,0,1-3.18.86,4.2,4.2,0,0,1-2.79-1.76,4.16,4.16,0,0,1-.88-3.19,4.11,4.11,0,0,1,1.74-2.79,4.1,4.1,0,0,1,3.18-.86A4.18,4.18,0,0,1,31.12,12.44Zm-4.67.84A1.51,1.51,0,0,0,26,15.34l2.57-1.91A1.49,1.49,0,0,0,26.45,13.28Z"/><path class="cls-1" d="M36.92,8.68a1.21,1.21,0,0,0-.81-.57,1.71,1.71,0,0,0-1,.18,1.48,1.48,0,0,0-.82,1,2,2,0,0,0,.19,1.39,2,2,0,0,0,1,1,1.65,1.65,0,0,0,2-.84,1.47,1.47,0,0,0,0-1.13L40,8.47a3.79,3.79,0,0,1,.09,3,4.36,4.36,0,0,1-2.25,2.29,4.17,4.17,0,0,1-3.3.3A4.12,4.12,0,0,1,32,11.87a4.13,4.13,0,0,1-.28-3.3A4.23,4.23,0,0,1,34,6.11a4.4,4.4,0,0,1,3.09-.43,3.77,3.77,0,0,1,2.35,1.75Z"/><path class="cls-1" d="M39.77,5.92l-.63-2,7.08-2.22.63,2-2.2.69,1.84,5.84-2.69.84L42,5.23Z"/><path class="cls-1" d="M56.12,7.38A4.38,4.38,0,0,1,53.18,9a4.3,4.3,0,0,1-3.26-.74,4.11,4.11,0,0,1-1.67-2.89,4.11,4.11,0,0,1,.8-3.23A4.28,4.28,0,0,1,52,.52a4.33,4.33,0,0,1,3.27.74,4.06,4.06,0,0,1,1.66,2.89A4.06,4.06,0,0,1,56.12,7.38ZM51.57,6.25a1.57,1.57,0,0,0,1.27.33A1.55,1.55,0,0,0,54,5.91a1.86,1.86,0,0,0,.28-1.39,1.88,1.88,0,0,0-.65-1.25,1.54,1.54,0,0,0-1.27-.34,1.58,1.58,0,0,0-1.14.68A1.87,1.87,0,0,0,50.92,5,1.87,1.87,0,0,0,51.57,6.25Z"/><path class="cls-1" d="M58.24,8.24,58.51,0l4.9.16a2.89,2.89,0,0,1,1.83.61,2,2,0,0,1,.64,1.63,1.73,1.73,0,0,1-1.13,1.66,2.08,2.08,0,0,1,1,.77A2,2,0,0,1,66,6.06a2.31,2.31,0,0,1-.78,1.8,3.13,3.13,0,0,1-2.09.54ZM62.38,5,61,4.9,60.9,6.61l1.42,0c.65,0,1-.26,1-.85S63,5,62.38,5Zm0-3.11-1.31,0L61,3.31l1.31,0c.64,0,1-.22,1-.73A.67.67,0,0,0,63.08,2,1.2,1.2,0,0,0,62.37,1.84Z"/><path class="cls-1" d="M71.72,9.61,72,8.34a2.66,2.66,0,0,1-2.88.9,3.18,3.18,0,0,1-1.18-.49,2.34,2.34,0,0,1-.79-1A2.15,2.15,0,0,1,67,6.43a2.29,2.29,0,0,1,.43-1,1.67,1.67,0,0,1,.71-.57A3.34,3.34,0,0,1,69,4.61a4.51,4.51,0,0,1,1-.05c.32,0,.64,0,.95,0h.83a1.29,1.29,0,0,0,.62-.14.57.57,0,0,0,.31-.41.71.71,0,0,0-.17-.66A1.26,1.26,0,0,0,71.83,3a1.2,1.2,0,0,0-.9.1,1.1,1.1,0,0,0-.45.75l-2.59-.54a2.89,2.89,0,0,1,.44-1.08,2.48,2.48,0,0,1,.75-.73,3.72,3.72,0,0,1,1-.39A4.68,4.68,0,0,1,71.18,1a6,6,0,0,1,1.16.14,7.2,7.2,0,0,1,1.11.32,4.52,4.52,0,0,1,.94.52,3.06,3.06,0,0,1,.7.69,2.27,2.27,0,0,1,.38.9,2.62,2.62,0,0,1,0,1.08l-1.13,5.48Zm-2-2.89a.63.63,0,0,0,.14.58,1.15,1.15,0,0,0,.61.31,1.53,1.53,0,0,0,1.13-.15,1.39,1.39,0,0,0,.63-1l.1-.49a3.88,3.88,0,0,1-.81.12l-.83,0a1.61,1.61,0,0,0-.62.14A.6.6,0,0,0,69.75,6.72Z"/><path class="cls-1" d="M80.23,12.38l1.14-2.85-2.3-.91-1.14,2.85-2.61-1,3.06-7.66,2.61,1L79.85,6.66l2.3.91,1.14-2.85,2.6,1-3.06,7.66Z"/><path class="cls-1" d="M88.32,16.76,90,14.16l-2.09-1.32-1.64,2.6-2.38-1.5,4.4-7,2.37,1.5L89,11.06l2.09,1.31,1.64-2.59,2.37,1.49-4.39,7Z"/><path class="cls-1" d="M99.06,22a2.75,2.75,0,0,1-2.1.94,3.54,3.54,0,0,1-2.26-1.13l-3.06-3,5.75-5.92,2,1.9-1.8,1.86,1.08,1.05a3.69,3.69,0,0,1,1.2,2.2A2.5,2.5,0,0,1,99.06,22Zm-2.14-3.38L96.26,18l-1.38,1.42.65.63c.56.55,1.07.58,1.53.11S97.47,19.13,96.92,18.58Zm2.7,8-2-2,5.75-5.91,2,1.95Z"/><path class="cls-1" d="M108.15,31.93a5.65,5.65,0,0,1-.56.34l-3.27-4.84a1.55,1.55,0,0,0-.27,2.2,1.26,1.26,0,0,0,1.33.69l1.51,2.24a3.78,3.78,0,0,1-2.59,0,4.51,4.51,0,0,1-2.08-1.77,4.11,4.11,0,0,1-.72-3.21,4.57,4.57,0,0,1,5.12-3.45A4.5,4.5,0,0,1,110,29.22,4.2,4.2,0,0,1,108.15,31.93Zm-.63-4.7a1.51,1.51,0,0,0-2-.57l1.79,2.65A1.48,1.48,0,0,0,107.52,27.23Z"/><path class="cls-1" d="M120.29,50.37A26.5,26.5,0,0,0,118,52.48c-1,1-1.66,1.71-2.14,2.27-.47-.33-1.36-.86-2.68-1.58a25.44,25.44,0,0,0-2.85-1.37,7.82,7.82,0,0,0,.88-.73c.58-.52,1.24-1.16,2-1.92.16-.16.7-.73,1.61-1.71.69.44,1.66,1,2.91,1.69A23.14,23.14,0,0,0,120.29,50.37Z"/><path class="cls-1" d="M18,90.79a1.23,1.23,0,0,0,.42-.9,1.63,1.63,0,0,0-.35-1,1.46,1.46,0,0,0-1.1-.64,2.24,2.24,0,0,0-2.17,1.57,1.52,1.52,0,0,0,.3,1.25,1.58,1.58,0,0,0,.88.62,1.49,1.49,0,0,0,1.1-.2l1.64,2.23a3.73,3.73,0,0,1-3,.6,4.36,4.36,0,0,1-2.64-1.82,4.22,4.22,0,0,1-.86-3.2A4.16,4.16,0,0,1,14,86.52a4.16,4.16,0,0,1,3.21-.84A4.2,4.2,0,0,1,20,87.46a4.34,4.34,0,0,1,.95,3,3.77,3.77,0,0,1-1.32,2.62Z"/><path class="cls-1" d="M17.36,97.65l5.66-6,5.76,5.43-5.65,6-2-1.93,4.19-4.45-1.67-1.58-4.2,4.45Z"/><path class="cls-1" d="M34.33,105.7a6.41,6.41,0,0,1-.39.54L29,103.06a1.54,1.54,0,0,0,.61,2.13,1.23,1.23,0,0,0,1.49.12l2.27,1.47a3.75,3.75,0,0,1-2.38,1,4.48,4.48,0,0,1-2.6-.81,4.12,4.12,0,0,1-1.92-2.68,4.55,4.55,0,0,1,3.35-5.17,4.26,4.26,0,0,1,4.47,6.56Zm-2.42-4.08a1.5,1.5,0,0,0-2.09.28l2.68,1.74A1.49,1.49,0,0,0,31.91,101.62Z"/><path class="cls-1" d="M39.43,114.8l.84-2-6.09-2.49,3.12-7.63,2.6,1.06-2.31,5.66,2.13.88L42,104.56l2.59,1.06-2.31,5.67,1,.4-1.64,4Z"/><path class="cls-1" d="M48.87,106.67l-1.06,5.42,3.43-5,3.25.64-1.58,8.09-2.54-.49,1.07-5.47-3.44,5-3.27-.64,1.58-8.09Z"/><path class="cls-1" d="M60.55,116.16l0-1.3a2.69,2.69,0,0,1-2.67,1.42,3.44,3.44,0,0,1-1.25-.26,2.29,2.29,0,0,1-.95-.8,2.16,2.16,0,0,1-.37-1.32,2.47,2.47,0,0,1,.24-1.06,1.75,1.75,0,0,1,.59-.69,3.93,3.93,0,0,1,.82-.41,5.26,5.26,0,0,1,1-.23l.94-.13.82-.15a1.34,1.34,0,0,0,.58-.25.56.56,0,0,0,.23-.46.7.7,0,0,0-.29-.62,1.21,1.21,0,0,0-.78-.24,1.17,1.17,0,0,0-.87.27,1.1,1.1,0,0,0-.3.81l-2.64,0a2.84,2.84,0,0,1,.23-1.15,2.51,2.51,0,0,1,.6-.85,3.14,3.14,0,0,1,.9-.57,4.38,4.38,0,0,1,1.07-.31,6.33,6.33,0,0,1,1.17-.08,6,6,0,0,1,1.14.11,4.35,4.35,0,0,1,1,.33,3.33,3.33,0,0,1,.83.55,2.42,2.42,0,0,1,.53.81,2.52,2.52,0,0,1,.19,1.07l-.09,5.59Zm-2.48-2.48a.61.61,0,0,0,.25.54,1.12,1.12,0,0,0,.65.2,1.52,1.52,0,0,0,1.09-.36,1.39,1.39,0,0,0,.43-1.07v-.5a3.56,3.56,0,0,1-.77.27l-.81.18a1.41,1.41,0,0,0-.59.25A.61.61,0,0,0,58.07,113.68Z"/><path class="cls-1" d="M65.64,112.94a34,34,0,0,0-.62-5.18l7-1.16,1.35,8.14-2.77.46-1-6-1.73.28a28.58,28.58,0,0,1,.34,3.37,5.53,5.53,0,0,1-.12,1.38,2.19,2.19,0,0,1-.45.93,2.31,2.31,0,0,1-.77.57,5.13,5.13,0,0,1-1.14.31l-.5.08-.38-2.31.17,0C65.38,113.68,65.59,113.41,65.64,112.94Z"/><path class="cls-1" d="M75.66,105.42l1.9,5.19.36-6L81,103.45l2.83,7.75-2.43.89-1.92-5.24-.35,6.07L76,114.06l-2.83-7.74Z"/><path class="cls-1" d="M88.54,103.1a1.23,1.23,0,0,0-.86-.51,1.59,1.59,0,0,0-1,.26,1.47,1.47,0,0,0-.74,1,2,2,0,0,0,.3,1.38,1.92,1.92,0,0,0,1.06.93,1.46,1.46,0,0,0,1.27-.18,1.51,1.51,0,0,0,.7-.82,1.46,1.46,0,0,0-.09-1.11l2.38-1.42a3.79,3.79,0,0,1,.32,3,4.43,4.43,0,0,1-2.07,2.46,4.15,4.15,0,0,1-5.9-1.47,4.14,4.14,0,0,1-.53-3.27,4.23,4.23,0,0,1,2-2.62,4.36,4.36,0,0,1,3-.67A3.79,3.79,0,0,1,91,101.66Z"/><path class="cls-1" d="M90.63,100.21l-1.37-1.62,5.67-4.78,1.37,1.62-1.76,1.49,3.94,4.68-2.15,1.81-3.94-4.68Z"/><path class="cls-1" d="M104.38,90.93a2.7,2.7,0,0,1,1.13,2,3.42,3.42,0,0,1-.9,2.36L102,98.62l-6.44-5.15,1.69-2.13,2,1.62.94-1.18a3.63,3.63,0,0,1,2.07-1.41A2.49,2.49,0,0,1,104.38,90.93Zm-3.15,2.46-.57.71,1.55,1.24.57-.71c.48-.61.47-1.12,0-1.54S101.71,92.78,101.23,93.39Zm7.66-3.47-1.75,2.19L100.69,87l1.75-2.19Z"/></g></g></svg>