<svg width="19" height="20" viewBox="0 0 19 20" fill="none" xmlns="http://www.w3.org/2000/svg">
<path d="M4.2982 20C3.19752 20 2.09687 19.5928 1.25893 18.7785C0.447084 17.9895 0 16.9405 0 15.8248C0 14.7091 0.447084 13.6601 1.25893 12.8711L13.5717 0.905156C14.1723 0.321445 14.9708 0 15.8202 0C16.6695 0 17.4681 0.321445 18.0687 0.905156C18.6692 1.48883 19 2.26484 19 3.09031C19 3.91574 18.6692 4.6918 18.0687 5.27547L7.42751 15.6169C6.62374 16.398 5.31597 16.398 4.51216 15.6169C3.70839 14.8357 3.70839 13.5648 4.51216 12.7836L11.998 5.50863C12.2182 5.29465 12.5752 5.29465 12.7955 5.50863C13.0157 5.72262 13.0157 6.06961 12.7955 6.28363L5.30958 13.5586C4.94554 13.9124 4.94554 14.488 5.30958 14.8419C5.67366 15.1957 6.26597 15.1957 6.63005 14.8419L17.2712 4.50047C17.6588 4.12379 17.8722 3.62297 17.8722 3.09031C17.8722 2.55762 17.6588 2.0568 17.2712 1.68016C16.4711 0.902578 15.1692 0.902578 14.3691 1.68016L2.05635 13.6461C1.45753 14.228 1.12774 15.0018 1.12774 15.8248C1.12774 16.6479 1.45753 17.4216 2.05635 18.0035C3.29254 19.2048 5.30391 19.2048 6.54001 18.0036L15.7223 9.07984C15.9425 8.86586 16.2995 8.86586 16.5198 9.07984C16.74 9.29383 16.74 9.64082 16.5198 9.85484L7.33747 18.7785C6.49954 19.5928 5.39885 20 4.2982 20Z" fill="#A4ACB1"/>
</svg>
