<svg width="186" height="186" viewBox="0 0 186 186" fill="none" xmlns="http://www.w3.org/2000/svg">
<path d="M62.9322 79.9036C62.2011 79.5152 61.6679 79.0811 61.3328 78.6013C60.8759 77.9463 60.6474 77.1923 60.6474 76.3393C60.6474 74.938 61.3062 73.7918 62.6237 72.9007C63.6519 72.2153 65.0113 71.8726 66.7021 71.8726C68.9412 71.8726 70.5938 72.2991 71.6601 73.152C72.7339 74.005 73.2709 75.0789 73.2709 76.3736C73.2709 77.1276 73.0576 77.8321 72.6311 78.487C72.3112 78.9744 71.8086 79.4466 71.1232 79.9036C72.0295 80.3377 72.7035 80.9127 73.1452 81.6286C73.5945 82.3445 73.8192 83.1366 73.8192 84.0048C73.8192 84.8425 73.625 85.627 73.2366 86.3581C72.8558 87.0816 72.3836 87.6414 71.82 88.0374C71.264 88.4335 70.5672 88.7229 69.7294 88.9057C68.8993 89.0961 68.012 89.1913 67.0677 89.1913C65.2931 89.1913 63.9375 88.9818 63.0007 88.5629C62.064 88.1441 61.3519 87.5272 60.8645 86.7123C60.377 85.8974 60.1333 84.9872 60.1333 83.9819C60.1333 82.9995 60.3618 82.1693 60.8188 81.4915C61.2757 80.8061 61.9802 80.2768 62.9322 79.9036ZM65.0228 76.6135C65.0228 77.1923 65.2017 77.6607 65.5597 78.0186C65.9253 78.369 66.4089 78.5441 67.0105 78.5441C67.5437 78.5441 67.9816 78.369 68.3243 78.0186C68.667 77.6683 68.8384 77.2152 68.8384 76.6592C68.8384 76.0804 68.6594 75.612 68.3014 75.2541C67.9435 74.8885 67.4865 74.7057 66.9306 74.7057C66.367 74.7057 65.9062 74.8847 65.5483 75.2426C65.1979 75.593 65.0228 76.0499 65.0228 76.6135ZM64.7714 83.822C64.7714 84.5608 64.9961 85.1662 65.4455 85.6384C65.8948 86.103 66.4089 86.3353 66.9877 86.3353C67.5437 86.3353 68.0425 86.0992 68.4842 85.627C68.9259 85.1472 69.1468 84.5417 69.1468 83.8106C69.1468 83.0718 68.9221 82.4664 68.4728 81.9942C68.0311 81.522 67.517 81.2859 66.9306 81.2859C66.3518 81.2859 65.8453 81.5144 65.4112 81.9713C64.9847 82.4283 64.7714 83.0452 64.7714 83.822Z" fill="#1F30C1"/>
<path d="M97.9351 88.9057H93.2856V80.1778H89.7556V85.2614C89.7556 86.6171 89.4776 87.6224 88.9216 88.2773C88.3733 88.9323 87.5279 89.2598 86.3855 89.2598C85.0908 89.2598 83.9294 89.1418 82.9012 88.9057V85.4671C83.4496 85.6346 83.8685 85.7184 84.1579 85.7184C84.7824 85.7184 85.0946 85.2538 85.0946 84.3247V76.7849H97.9351V88.9057Z" fill="#1F30C1"/>
<path d="M114.214 83.9934H104.892C104.976 84.7397 105.178 85.2957 105.498 85.6613C105.947 86.1868 106.534 86.4495 107.257 86.4495C107.714 86.4495 108.148 86.3353 108.559 86.1068C108.811 85.9621 109.081 85.707 109.37 85.3414L113.951 85.7641C113.251 86.9826 112.405 87.8585 111.415 88.3916C110.425 88.9171 109.005 89.1798 107.154 89.1798C105.547 89.1798 104.283 88.9552 103.362 88.5058C102.44 88.0489 101.675 87.3292 101.065 86.3467C100.464 85.3566 100.163 84.1952 100.163 82.8624C100.163 80.966 100.768 79.4314 101.979 78.2585C103.198 77.0857 104.877 76.4993 107.017 76.4993C108.754 76.4993 110.124 76.762 111.13 77.2875C112.135 77.813 112.9 78.5746 113.426 79.5723C113.951 80.57 114.214 81.8685 114.214 83.4679V83.9934ZM109.485 81.7657C109.393 80.867 109.15 80.2235 108.754 79.8351C108.365 79.4466 107.851 79.2524 107.211 79.2524C106.473 79.2524 105.882 79.5456 105.441 80.1321C105.159 80.4976 104.98 81.0422 104.904 81.7657H109.485Z" fill="#1F30C1"/>
<path d="M126.575 80.1778H123.205V88.9057H118.544V80.1778H115.174V76.7849H126.575V80.1778Z" fill="#1F30C1"/>
<path d="M53.8502 110.949C53.8502 109.099 54.4747 107.575 55.7237 106.38C56.9727 105.176 58.6596 104.575 60.7845 104.575C63.214 104.575 65.0494 105.279 66.2908 106.688C67.2885 107.823 67.7874 109.22 67.7874 110.881C67.7874 112.747 67.1667 114.277 65.9253 115.473C64.6915 116.661 62.9817 117.255 60.7959 117.255C58.8462 117.255 57.2697 116.76 56.0664 115.77C54.5889 114.544 53.8502 112.937 53.8502 110.949ZM58.5111 110.938C58.5111 112.019 58.7282 112.819 59.1623 113.337C59.604 113.855 60.1562 114.114 60.8188 114.114C61.489 114.114 62.0373 113.859 62.4638 113.348C62.8979 112.838 63.115 112.019 63.115 110.892C63.115 109.841 62.8979 109.061 62.4638 108.55C62.0297 108.032 61.4928 107.773 60.853 107.773C60.1752 107.773 59.6154 108.036 59.1737 108.562C58.732 109.08 58.5111 109.872 58.5111 110.938Z" fill="#1F30C1"/>
<path d="M82.8213 116.981H78.1717V108.253H74.6303V116.981H69.9808V104.86H82.8213V116.981Z" fill="#1F30C1"/>
<path d="M90.4525 109.167H92.5773C96.1644 109.167 97.958 110.477 97.958 113.097C97.958 115.686 96.2101 116.981 92.7144 116.981H85.7915V104.86H90.4525V109.167ZM90.4525 114.125H91.9718C92.3526 114.125 92.6611 114.038 92.8972 113.862C93.1409 113.687 93.2627 113.432 93.2627 113.097C93.2627 112.366 92.8324 112 91.9718 112H90.4525V114.125ZM99.2832 104.849H103.933V116.981H99.2832V104.849Z" fill="#1F30C1"/>
<path d="M117.127 108.253H113.757V116.981H109.096V108.253H105.726V104.86H117.127V108.253Z" fill="#1F30C1"/>
<path d="M123.022 108.779L118.578 108.31C118.746 107.534 118.986 106.924 119.298 106.483C119.618 106.033 120.075 105.645 120.669 105.317C121.095 105.081 121.682 104.898 122.428 104.769C123.174 104.639 123.982 104.575 124.85 104.575C126.244 104.575 127.363 104.655 128.209 104.815C129.054 104.967 129.758 105.291 130.322 105.786C130.718 106.128 131.03 106.616 131.259 107.248C131.487 107.872 131.601 108.47 131.601 109.041V114.399C131.601 114.971 131.636 115.42 131.704 115.747C131.78 116.067 131.94 116.478 132.184 116.981H127.82C127.645 116.669 127.531 116.433 127.477 116.273C127.424 116.105 127.371 115.846 127.318 115.496C126.708 116.082 126.103 116.501 125.501 116.753C124.679 117.088 123.723 117.255 122.634 117.255C121.187 117.255 120.086 116.92 119.332 116.25C118.586 115.58 118.213 114.753 118.213 113.771C118.213 112.849 118.483 112.092 119.024 111.498C119.564 110.904 120.562 110.462 122.017 110.172C123.761 109.822 124.892 109.578 125.41 109.441C125.928 109.297 126.476 109.11 127.055 108.882C127.055 108.31 126.937 107.911 126.701 107.682C126.465 107.454 126.049 107.339 125.455 107.339C124.694 107.339 124.123 107.461 123.742 107.705C123.445 107.895 123.205 108.253 123.022 108.779ZM127.055 111.223C126.415 111.452 125.749 111.654 125.056 111.829C124.111 112.08 123.513 112.328 123.262 112.571C123.003 112.823 122.874 113.108 122.874 113.428C122.874 113.794 122.999 114.095 123.251 114.331C123.51 114.559 123.887 114.673 124.382 114.673C124.899 114.673 125.379 114.548 125.821 114.297C126.27 114.045 126.586 113.741 126.769 113.383C126.96 113.017 127.055 112.545 127.055 111.966V111.223Z" fill="#1F30C1"/>
<path d="M90.1272 5.38743C91.5843 3.51401 94.4157 3.51401 95.8728 5.38743L108.539 21.6724C110.111 23.6937 112.835 24.4237 115.207 23.4592L134.318 15.6889C136.517 14.795 138.969 16.2107 139.294 18.5617L142.121 38.9978C142.471 41.5344 144.466 43.5286 147.002 43.8794L167.438 46.7058C169.789 47.0309 171.205 49.4831 170.311 51.6816L162.541 70.793C161.576 73.1652 162.306 75.8893 164.328 77.4614L180.613 90.1272C182.486 91.5843 182.486 94.4157 180.613 95.8728L164.328 108.539C162.306 110.111 161.576 112.835 162.541 115.207L170.311 134.318C171.205 136.517 169.789 138.969 167.438 139.294L147.002 142.121C144.466 142.471 142.471 144.466 142.121 147.002L139.294 167.438C138.969 169.789 136.517 171.205 134.318 170.311L115.207 162.541C112.835 161.576 110.111 162.306 108.539 164.328L95.8728 180.613C94.4157 182.486 91.5843 182.486 90.1272 180.613L77.4614 164.328C75.8893 162.306 73.1652 161.576 70.793 162.541L51.6816 170.311C49.4831 171.205 47.0309 169.789 46.7058 167.438L43.8794 147.002C43.5286 144.466 41.5344 142.471 38.9978 142.121L18.5617 139.294C16.2107 138.969 14.795 136.517 15.6889 134.318L23.4592 115.207C24.4237 112.835 23.6937 110.111 21.6724 108.539L5.38743 95.8728C3.51401 94.4157 3.51401 91.5843 5.38743 90.1272L21.6724 77.4614C23.6937 75.8893 24.4237 73.1652 23.4592 70.793L15.6889 51.6816C14.795 49.4831 16.2107 47.0309 18.5617 46.7058L38.9978 43.8794C41.5344 43.5286 43.5286 41.5344 43.8794 38.9978L46.7058 18.5617C47.0309 16.2107 49.4831 14.795 51.6816 15.6889L70.793 23.4592C73.1652 24.4237 75.8893 23.6937 77.4614 21.6724L90.1272 5.38743Z" stroke="#495CFF" stroke-width="2.07966"/>
</svg>
