<svg xmlns="http://www.w3.org/2000/svg" xmlns:xlink="http://www.w3.org/1999/xlink" width="384" height="256" fill="none" xmlns:v="https://vecta.io/nano"><path d="M0 31.333C0 27.835 2.835 25 6.333 25h208.46c2.459 0 4.696 1.424 5.737 3.651l18.248 39.042c.776 1.661.795 3.576.051 5.251l-18.335 41.292c-1.016 2.288-3.284 3.763-5.787 3.763H6.333C2.835 118 0 115.165 0 111.667V31.333z" fill="#222"/><path d="M11.295 68V48.5h6.094c1.828 0 3.263.495 4.304 1.485 1.041.982 1.562 2.395 1.562 4.24v1.028c0 1.87-.525 3.313-1.574 4.329-1.041 1.016-2.471 1.523-4.291 1.523h-1.803V68h-4.291zm5.878-15.856h-1.587v5.332h1.587c1.32 0 1.98-.825 1.98-2.476v-.52c0-.829-.169-1.426-.508-1.79-.33-.364-.821-.546-1.473-.546zM29.195 55v8.709L32.991 55h5.23v13h-4.088v-8.785L30.338 68h-5.256V55h4.113zm20.11 5.434c-.076-.601-.326-1.058-.749-1.371s-.944-.47-1.562-.47a2.33 2.33 0 0 0-1.841.813c-.474.533-.711 1.231-.711 2.095 0 .897.229 1.608.685 2.133.466.516 1.088.774 1.866.774.635 0 1.168-.182 1.6-.546.44-.364.702-.893.787-1.587h4.367c-.093 1.786-.762 3.229-2.006 4.329-1.236 1.1-2.827 1.65-4.773 1.65-1.964 0-3.589-.63-4.875-1.892-1.278-1.27-1.917-2.89-1.917-4.862s.639-3.589 1.917-4.85c1.286-1.27 2.911-1.904 4.875-1.904 1.887 0 3.44.52 4.659 1.562 1.227 1.041 1.926 2.416 2.095 4.126h-4.418zM63.981 68l-3.847-6.792V68h-4.431V55h4.431v5.51L63.638 55h5.091l-4.316 5.852L68.97 68h-4.989zm10.537-13v8.709L78.314 55h5.23v13h-4.088v-8.785L75.66 68h-5.256V55h4.113zM16.97 88.541h-1.955v-2.285h2.057c.482 0 .842-.11 1.079-.33.237-.228.355-.529.355-.901a1.03 1.03 0 0 0-.444-.889c-.288-.22-.724-.33-1.308-.33-.626 0-1.113.165-1.46.495-.339.33-.508.791-.508 1.384H10.8c0-1.439.537-2.62 1.612-3.542 1.075-.931 2.552-1.397 4.431-1.397 1.769 0 3.148.356 4.139 1.066.999.711 1.498 1.646 1.498 2.806a3.4 3.4 0 0 1-.406 1.65c-.271.491-.664.884-1.181 1.181 1.269.542 1.904 1.443 1.904 2.704 0 1.278-.525 2.281-1.574 3.009-1.041.728-2.484 1.092-4.329 1.092-1.93 0-3.453-.432-4.57-1.295-1.117-.872-1.676-2.129-1.676-3.77h3.986c0 .643.186 1.147.559 1.511.381.364.931.546 1.65.546.626 0 1.092-.131 1.396-.393.313-.262.47-.601.47-1.016 0-.863-.58-1.295-1.739-1.295zM32.509 94v-2.057c-.753 1.54-2.141 2.311-4.164 2.311-.711 0-1.371-.127-1.98-.381-.601-.254-1.109-.664-1.523-1.231-.406-.575-.609-1.265-.609-2.069 0-.643.114-1.202.343-1.676.237-.482.542-.851.914-1.105.381-.262.813-.482 1.295-.66a6.52 6.52 0 0 1 1.473-.381l1.485-.241 1.282-.254c.381-.085.686-.22.914-.406.237-.195.355-.44.355-.736 0-.415-.161-.741-.482-.978-.313-.237-.724-.355-1.231-.355-.592 0-1.045.152-1.358.457-.305.296-.457.724-.457 1.282H24.6c0-.669.114-1.274.343-1.815s.537-.995.927-1.358a5.18 5.18 0 0 1 1.384-.914 6.97 6.97 0 0 1 1.689-.52 9.93 9.93 0 0 1 1.841-.165c.635 0 1.236.051 1.803.152a6.84 6.84 0 0 1 1.625.495 4.78 4.78 0 0 1 1.308.85c.364.338.652.762.863 1.27.22.499.33 1.058.33 1.676V94h-4.202zm-3.961-3.847c0 .372.135.656.406.851s.614.292 1.028.292c.703 0 1.27-.199 1.701-.597.44-.398.66-.961.66-1.689v-.787c-.305.161-.707.305-1.206.432l-1.269.305a2.37 2.37 0 0 0-.927.419.92.92 0 0 0-.394.774zm19.03-3.719c-.076-.601-.326-1.058-.749-1.371s-.944-.47-1.561-.47a2.33 2.33 0 0 0-1.841.813c-.474.533-.711 1.231-.711 2.095 0 .897.228 1.608.686 2.133.465.516 1.087.774 1.866.774.635 0 1.168-.182 1.6-.546.44-.364.703-.893.787-1.587h4.367c-.093 1.786-.762 3.229-2.006 4.329-1.236 1.1-2.827 1.65-4.773 1.65-1.964 0-3.589-.63-4.875-1.892-1.278-1.27-1.917-2.89-1.917-4.862s.639-3.588 1.917-4.85c1.286-1.27 2.911-1.904 4.875-1.904 1.887 0 3.44.52 4.659 1.561 1.227 1.041 1.925 2.416 2.095 4.126h-4.418zm5.142-2.082V81h11.692v3.352h-3.631V94H56.35v-9.648h-3.63zm21.595 9.902c-1.523 0-2.78-.588-3.771-1.765v8.011h-4.431V81h4.291v1.663c.982-1.278 2.285-1.917 3.91-1.917 1.735 0 3.14.618 4.215 1.853 1.083 1.227 1.625 2.861 1.625 4.9s-.542 3.677-1.625 4.913c-1.075 1.227-2.48 1.841-4.215 1.841zm-1.13-3.847c.787 0 1.43-.267 1.93-.8.499-.542.749-1.244.749-2.107s-.25-1.561-.749-2.095c-.499-.542-1.143-.812-1.93-.812-.77 0-1.405.271-1.904.813-.491.533-.736 1.231-.736 2.095s.246 1.566.736 2.107c.499.533 1.134.8 1.904.8zM89.815 94v-2.057c-.753 1.54-2.141 2.311-4.164 2.311-.711 0-1.371-.127-1.98-.381-.601-.254-1.109-.664-1.523-1.231-.406-.575-.609-1.265-.609-2.069 0-.643.114-1.202.343-1.676.237-.482.542-.851.914-1.105.381-.262.813-.482 1.295-.66.483-.186.973-.313 1.473-.381l1.485-.241 1.282-.254c.381-.085.686-.22.914-.406.237-.195.355-.44.355-.736 0-.415-.161-.741-.482-.978-.313-.237-.724-.355-1.231-.355-.592 0-1.045.152-1.358.457-.305.296-.457.724-.457 1.282h-4.164c0-.669.114-1.274.343-1.815s.538-.995.927-1.358.851-.669 1.384-.914a6.97 6.97 0 0 1 1.688-.52c.584-.11 1.198-.165 1.841-.165.635 0 1.236.051 1.803.152a6.88 6.88 0 0 1 1.625.495 4.78 4.78 0 0 1 1.308.85c.364.339.652.762.863 1.27.22.499.33 1.058.33 1.676V94h-4.202zm-3.961-3.847c0 .372.135.656.406.851s.614.292 1.028.292c.702 0 1.269-.199 1.701-.597.44-.398.66-.961.66-1.689v-.787c-.305.161-.707.305-1.206.432l-1.269.305a2.37 2.37 0 0 0-.927.419.92.92 0 0 0-.394.774zM103.869 94l-2.082-4.519L99.87 94h-4.761l3.72-6.728L95.313 81h4.685l1.93 4.266L103.742 81h4.685l-3.517 6.348L108.63 94h-4.761zm16.821-1.625c-1.303 1.253-2.949 1.879-4.938 1.879s-3.635-.626-4.939-1.879-1.955-2.878-1.955-4.875.652-3.622 1.955-4.875 2.95-1.879 4.939-1.879 3.635.626 4.938 1.879 1.956 2.878 1.956 4.875-.652 3.622-1.956 4.875zm-6.855-2.768c.491.533 1.13.8 1.917.8s1.426-.267 1.917-.8c.491-.542.736-1.244.736-2.107s-.245-1.561-.736-2.095c-.491-.542-1.13-.812-1.917-.812s-1.426.271-1.917.813c-.491.533-.736 1.231-.736 2.095s.245 1.566.736 2.107zM124.588 94V81h7.731c1.219 0 2.188.292 2.908.876.727.575 1.091 1.418 1.091 2.526 0 1.253-.562 2.146-1.688 2.679.669.245 1.189.63 1.561 1.155.381.516.572 1.155.572 1.917 0 1.27-.381 2.23-1.143 2.882-.762.643-1.845.965-3.25.965h-7.782zm6.17-10.296h-2.057v2.387h2.057c1.007 0 1.511-.398 1.511-1.193 0-.423-.123-.728-.369-.914s-.626-.279-1.142-.279zm.178 4.888h-2.235v2.704h2.235c1.024 0 1.536-.461 1.536-1.384 0-.88-.512-1.32-1.536-1.32zM146.716 94v-2.057c-.753 1.54-2.141 2.311-4.164 2.311a5.1 5.1 0 0 1-1.981-.381c-.601-.254-1.108-.664-1.523-1.231-.406-.575-.61-1.265-.61-2.069 0-.643.115-1.202.343-1.676.237-.482.542-.851.914-1.105.381-.262.813-.482 1.295-.66a6.52 6.52 0 0 1 1.473-.381l1.485-.241 1.282-.254c.381-.085.686-.22.915-.406.237-.195.355-.44.355-.736 0-.415-.161-.741-.482-.978-.314-.237-.724-.355-1.232-.355-.592 0-1.045.152-1.358.457-.305.296-.457.724-.457 1.282h-4.164c0-.669.114-1.274.342-1.815a3.92 3.92 0 0 1 .927-1.358c.389-.364.851-.669 1.384-.914a6.97 6.97 0 0 1 1.688-.52c.584-.11 1.198-.165 1.841-.165.635 0 1.236.051 1.803.152a6.88 6.88 0 0 1 1.625.495 4.78 4.78 0 0 1 1.308.85 3.6 3.6 0 0 1 .863 1.27c.22.499.33 1.058.33 1.676V94h-4.202zm-3.961-3.847c0 .372.135.656.406.851s.614.292 1.028.292c.703 0 1.27-.199 1.702-.597.44-.398.66-.961.66-1.689v-.787c-.305.161-.707.305-1.206.432l-1.27.305c-.347.076-.656.216-.927.419-.262.195-.393.453-.393.774zM161.633 94v-4.837h-3.898V94h-4.43V81h4.43v4.837h3.898V81h4.418v13h-4.418zm18.865-4.57c0 1.439-.449 2.56-1.346 3.364S176.99 94 175.356 94h-6.715V81h4.291v4.088h2.374c1.574 0 2.831.389 3.77 1.168.948.779 1.422 1.837 1.422 3.174zm5.675 4.57h-4.418V81h4.418v13zm-11.807-6.03h-1.434v3.123h1.434c1.227 0 1.841-.52 1.841-1.562s-.614-1.561-1.841-1.561z" fill="#fff"/><path d="M131.954 152.168a4.84 4.84 0 0 1 4.704-5.959h239.931a4.84 4.84 0 0 1 4.737 5.808l-8.265 40.273a7.23 7.23 0 0 0-.014 2.846l8.362 42.894c.583 2.986-1.704 5.761-4.746 5.761H136.658a4.84 4.84 0 0 1-4.704-5.959l9.824-41.148c.265-1.107.265-2.261 0-3.368l-9.824-41.148z" stroke="#107ef3" stroke-width="2.418"/><g fill="#107ef3"><path d="M160.096 184v-16.5h7.97v3.19h-4.275V184h-3.695zm13.524 0v-1.74c-.637 1.303-1.812 1.955-3.523 1.955a4.33 4.33 0 0 1-1.676-.322c-.509-.215-.938-.563-1.289-1.042-.344-.487-.516-1.071-.516-1.751 0-.545.097-1.017.29-1.418.201-.409.459-.72.774-.935a4.94 4.94 0 0 1 1.095-.559 5.59 5.59 0 0 1 1.246-.322l1.257-.204 1.085-.215c.323-.071.58-.186.774-.343.2-.165.301-.373.301-.624 0-.35-.137-.626-.409-.827-.265-.2-.612-.3-1.042-.3-.501 0-.884.128-1.149.386-.258.251-.387.613-.387 1.085h-3.523c0-.566.096-1.078.29-1.536a3.31 3.31 0 0 1 .784-1.149c.329-.308.72-.566 1.171-.774.458-.207.934-.354 1.429-.44.494-.093 1.013-.14 1.557-.14a8.65 8.65 0 0 1 1.526.129 5.81 5.81 0 0 1 1.375.419c.429.193.798.433 1.106.72s.551.644.73 1.074c.187.422.28.895.28 1.418V184h-3.556zm-3.351-3.255c0 .315.114.555.343.72s.52.247.87.247c.595 0 1.075-.168 1.44-.505.372-.337.558-.813.558-1.429v-.666c-.257.136-.598.258-1.02.366l-1.074.257a2.01 2.01 0 0 0-.784.355c-.222.165-.333.383-.333.655zm15.866 3.47c-1.289 0-2.353-.498-3.191-1.493v6.778h-3.749V173h3.631v1.407c.831-1.081 1.934-1.622 3.309-1.622 1.468 0 2.657.523 3.566 1.569.917 1.038 1.375 2.42 1.375 4.146s-.458 3.112-1.375 4.157c-.909 1.039-2.098 1.558-3.566 1.558zm-.956-3.255c.666 0 1.21-.226 1.633-.677.422-.458.633-1.053.633-1.783s-.211-1.321-.633-1.772c-.423-.459-.967-.688-1.633-.688-.652 0-1.189.229-1.612.688-.415.451-.623 1.042-.623 1.772s.208 1.325.623 1.783c.423.451.96.677 1.612.677z"/><use xlink:href="#B"/><path d="M211.873 184v-4.093h-3.298V184h-3.749v-11h3.749v4.093h3.298V173h3.738v11h-3.738zm5.167-8.164V173h9.894v2.836h-3.073V184h-3.749v-8.164h-3.072zM231.854 173v7.369l3.211-7.369h4.426v11h-3.459v-7.434L232.82 184h-4.447v-11h3.481zm9.829 3.674c0-1.218.383-2.134 1.149-2.75.773-.616 1.79-.924 3.051-.924h5.779v11h-3.631v-4.705L245.002 184h-4.028l2.9-4.179c-.68-.25-1.217-.641-1.611-1.171-.387-.53-.58-1.188-.58-1.976zM247 178.06h1.031v-2.729H247c-.544 0-.963.118-1.257.355-.286.229-.43.565-.43 1.009 0 .91.563 1.365 1.687 1.365zm18.928 5.94l-3.255-5.747V184h-3.749v-11h3.749v4.662l2.965-4.662h4.307l-3.652 4.952 3.856 6.048h-4.221z"/><use xlink:href="#B" x="78.332"/><path d="M288.218 177.533c.523 0 .963-.043 1.321-.129V173h3.738v11h-3.738v-3.803c-.68.129-1.361.194-2.041.194-1.697 0-2.918-.358-3.663-1.075s-1.117-1.876-1.117-3.48V173h3.749v2.771c0 .638.139 1.093.419 1.365.279.265.723.397 1.332.397zm18.057.967l-.043.881h-7.788c.215 1.289.956 1.933 2.224 1.933.924 0 1.511-.315 1.762-.945h3.598c-.351 1.261-.992 2.217-1.923 2.868s-2.098.978-3.501.978c-1.662 0-3.026-.534-4.093-1.601-1.06-1.067-1.59-2.438-1.59-4.114s.53-3.047 1.59-4.114c1.067-1.067 2.431-1.601 4.093-1.601s3.022.534 4.082 1.601 1.589 2.438 1.589 4.114zm-5.671-2.814c-1.175 0-1.888.608-2.138 1.826h4.264c-.236-1.218-.945-1.826-2.126-1.826zm14.501 1.912c-.064-.509-.275-.896-.633-1.16s-.799-.398-1.322-.398c-.637 0-1.156.229-1.557.688-.401.451-.602 1.042-.602 1.772 0 .759.194 1.361.58 1.805.394.437.921.655 1.579.655.538 0 .989-.154 1.354-.462.372-.308.594-.755.666-1.343h3.695c-.079 1.511-.644 2.732-1.697 3.663-1.046.931-2.392 1.397-4.039 1.397-1.662 0-3.037-.534-4.125-1.601-1.081-1.074-1.622-2.445-1.622-4.114s.541-3.036 1.622-4.104c1.088-1.074 2.463-1.611 4.125-1.611 1.597 0 2.911.441 3.942 1.321 1.039.881 1.63 2.045 1.773 3.492h-3.739zm4.351-1.762V173h9.894v2.836h-3.073V184h-3.749v-8.164h-3.072zM330.789 184v-11h6.542c1.031 0 1.851.247 2.46.741.616.487.924 1.2.924 2.138 0 1.06-.476 1.815-1.429 2.267.566.207 1.006.533 1.321.977.323.437.484.978.484 1.622 0 1.074-.322 1.887-.967 2.439-.645.544-1.561.816-2.75.816h-6.585zm5.221-8.712h-1.74v2.02h1.74c.852 0 1.278-.337 1.278-1.01 0-.358-.104-.616-.311-.774s-.53-.236-.967-.236zm.15 4.136h-1.89v2.288h1.89c.867 0 1.3-.39 1.3-1.171 0-.745-.433-1.117-1.3-1.117zM349.513 184v-1.74c-.638 1.303-1.812 1.955-3.524 1.955-.601 0-1.16-.108-1.676-.322-.508-.215-.938-.563-1.289-1.042-.343-.487-.515-1.071-.515-1.751 0-.545.096-1.017.29-1.418.2-.409.458-.72.773-.935a4.97 4.97 0 0 1 1.096-.559c.408-.157.824-.264 1.246-.322l1.257-.204 1.085-.215c.322-.071.58-.186.773-.343.201-.165.301-.373.301-.624a.97.97 0 0 0-.408-.827c-.265-.2-.612-.3-1.042-.3-.501 0-.885.128-1.15.386-.257.251-.386.613-.386 1.085h-3.524c0-.566.097-1.078.29-1.536a3.3 3.3 0 0 1 .785-1.149c.33-.308.719-.566 1.17-.774a5.94 5.94 0 0 1 1.429-.44c.494-.093 1.013-.14 1.558-.14a8.64 8.64 0 0 1 1.525.129 5.81 5.81 0 0 1 1.375.419c.43.193.799.433 1.107.72s.551.644.73 1.074a3.48 3.48 0 0 1 .279 1.418V184h-3.555zm-3.352-3.255c0 .315.115.555.344.72s.519.247.87.247c.594 0 1.074-.168 1.439-.505.373-.337.559-.813.559-1.429v-.666c-.258.136-.598.258-1.02.366l-1.075.257c-.293.065-.555.183-.784.355-.222.165-.333.383-.333.655zm-174.362 45.29h-.341v2.307h-5.965v-2.307h-.342c-2.985 0-5.218-.786-6.699-2.359-1.481-1.583-2.222-3.782-2.222-6.596v-4.478c0-2.905.758-5.116 2.273-6.631 1.527-1.527 3.743-2.29 6.648-2.29h.342v-2.273h5.965v2.273h.341c2.906 0 5.116.763 6.631 2.29 1.527 1.515 2.29 3.726 2.29 6.631v4.478c0 2.814-.74 5.013-2.221 6.596-1.482 1.573-3.715 2.359-6.7 2.359zm-.068-17.569h-.273v12.784h.375c1.037 0 1.784-.297 2.239-.889.467-.593.701-1.555.701-2.888v-5.23c0-1.424-.251-2.41-.752-2.956s-1.265-.821-2.29-.821zm-6.614 12.784h.376v-12.784h-.273c-1.026 0-1.789.274-2.29.821-.502.535-.752 1.521-.752 2.956v5.23c0 1.321.228 2.284.683 2.888.456.592 1.208.889 2.256.889zm29.412-4.444h5.947v2.615c0 2.985-.752 5.252-2.256 6.802-1.492 1.538-3.594 2.307-6.306 2.307s-4.819-.769-6.323-2.307c-1.504-1.55-2.256-3.817-2.256-6.802v-9.092c0-2.985.752-5.246 2.256-6.785 1.504-1.549 3.611-2.324 6.323-2.324s4.814.775 6.306 2.324c1.504 1.539 2.256 3.8 2.256 6.785v2.273h-5.947v-2.444c0-1.39-.222-2.381-.667-2.973-.433-.593-1.082-.889-1.948-.889-.854 0-1.51.296-1.965.889-.445.592-.667 1.583-.667 2.973v9.434c0 1.378.222 2.37.667 2.973.444.593 1.099.889 1.965.889s1.515-.296 1.948-.889c.445-.603.667-1.595.667-2.973v-2.786zm23.652 9.417c-1.492 1.538-3.594 2.307-6.306 2.307s-4.819-.769-6.323-2.307c-1.504-1.55-2.256-3.817-2.256-6.802v-9.092c0-2.985.752-5.246 2.256-6.785 1.504-1.549 3.611-2.324 6.323-2.324s4.814.775 6.306 2.324c1.504 1.539 2.256 3.8 2.256 6.785v9.092c0 2.985-.752 5.252-2.256 6.802zm-8.271-3.658c.444.593 1.099.889 1.965.889s1.515-.296 1.948-.889c.445-.592.667-1.583.667-2.973v-9.434c0-1.39-.222-2.381-.667-2.973-.433-.593-1.082-.889-1.948-.889-.854 0-1.51.296-1.965.889-.445.592-.667 1.583-.667 2.973v9.434c0 1.39.222 2.381.667 2.973zm27.993-19.414v-1.401h5.776V228h-5.947v-16.731h-4.443v-4.443h1.042c1.253 0 2.159-.285 2.717-.855.57-.581.855-1.521.855-2.82zm18.508 22.508c0 1.937-1.088 4.352-3.264 7.246h-2.82c1.117-1.607 1.943-3.139 2.478-4.597-.775-.103-1.413-.439-1.914-1.009s-.752-1.247-.752-2.033c0-.843.296-1.556.889-2.137a3.06 3.06 0 0 1 2.204-.871c.912 0 1.67.319 2.273.957s.906 1.452.906 2.444zm18.098-16.936a8.73 8.73 0 0 1-.41 2.649c-.262.854-.615 1.635-1.059 2.341a20.68 20.68 0 0 1-1.487 2.034l-1.709 1.897-1.692 1.743a16.96 16.96 0 0 0-1.47 1.76c-.444.615-.775 1.208-.991 1.777h8.972V228h-15.415v-2.444a9.85 9.85 0 0 1 .53-3.196c.353-1.048.814-1.982 1.384-2.802.57-.832 1.196-1.635 1.88-2.41l2.051-2.188 1.88-1.999c.569-.638 1.031-1.299 1.384-1.982.353-.695.53-1.368.53-2.017 0-1.777-.655-2.666-1.966-2.666-.66 0-1.167.233-1.521.701-.341.467-.512 1.236-.512 2.307v1.76h-5.589v-1.897c0-2.541.701-4.5 2.102-5.879s3.219-2.068 5.452-2.068c2.244 0 4.079.65 5.503 1.948 1.436 1.299 2.153 3.151 2.153 5.555zm9.417 16.936c0 1.937-1.088 4.352-3.264 7.246h-2.82c1.116-1.607 1.942-3.139 2.478-4.597-.775-.103-1.413-.439-1.914-1.009s-.752-1.247-.752-2.033c0-.843.296-1.556.888-2.137a3.06 3.06 0 0 1 2.205-.871c.912 0 1.669.319 2.273.957s.906 1.452.906 2.444zm19.055-4.307c0 1.504-.365 2.808-1.094 3.914a6.79 6.79 0 0 1-2.905 2.461c-1.196.535-2.546.803-4.05.803s-2.86-.268-4.068-.803c-1.196-.547-2.159-1.368-2.888-2.461-.729-1.106-1.094-2.41-1.094-3.914v-2.102h5.589v1.401c0 1.869.82 2.803 2.461 2.803 1.629 0 2.443-.957 2.443-2.871v-.803c0-1.846-.934-2.769-2.802-2.769h-1.743v-4.802h1.743c1.561 0 2.341-.894 2.341-2.683v-.957c0-1.515-.661-2.273-1.982-2.273-1.333 0-2 .723-2 2.17v1.265h-5.605v-1.47c0-2.278.712-4.022 2.136-5.229s3.247-1.812 5.469-1.812c1.424 0 2.7.251 3.828.752 1.128.49 2.033 1.248 2.717 2.273.695 1.014 1.043 2.222 1.043 3.623v1.231c0 2.199-.901 3.868-2.701 5.007 2.108 1.23 3.162 3.059 3.162 5.486v1.76zm8.459 4.307c0 1.937-1.088 4.352-3.264 7.246h-2.82c1.117-1.607 1.943-3.139 2.478-4.597a2.99 2.99 0 0 1-1.914-1.009c-.501-.569-.752-1.247-.752-2.033a2.88 2.88 0 0 1 .889-2.137 3.06 3.06 0 0 1 2.205-.871c.911 0 1.669.319 2.273.957s.905 1.452.905 2.444zm12.818.41V228h-5.947v-1.196l.17-3.811.428-3.247c.159-.935.41-1.937.752-3.008l.888-2.615c.24-.661.616-1.51 1.128-2.546l1.179-2.325 1.333-2.426h-9.023v-5.076h13.86v7.007l-2.529 5.281a27.31 27.31 0 0 0-2.068 8.1c-.114 1.208-.171 2.518-.171 3.931zm14.697-.41c0 1.937-1.088 4.352-3.264 7.246h-2.82c1.117-1.607 1.943-3.139 2.478-4.597-.775-.103-1.413-.439-1.914-1.009s-.752-1.247-.752-2.033c0-.843.296-1.556.889-2.137.604-.581 1.338-.871 2.204-.871.912 0 1.669.319 2.273.957s.906 1.452.906 2.444zm18.696-5.537c0 2.723-.734 4.808-2.204 6.254-1.459 1.436-3.407 2.154-5.845 2.154-1.47 0-2.791-.279-3.965-.838s-2.119-1.407-2.837-2.546c-.717-1.151-1.076-2.512-1.076-4.084v-1.111h5.776v.769c0 1.823.701 2.734 2.102 2.734 1.515 0 2.273-1.111 2.273-3.332v-3.846c-.98 1.288-2.33 1.932-4.05 1.932-1.778 0-3.27-.65-4.478-1.949-1.196-1.31-1.794-3.139-1.794-5.486v-1.503c0-2.541.74-4.518 2.221-5.931 1.493-1.412 3.435-2.119 5.828-2.119 2.427 0 4.375.729 5.845 2.188 1.47 1.447 2.204 3.52 2.204 6.22v10.494zm-5.776-10.152v-.512c0-2.108-.792-3.162-2.375-3.162-.73 0-1.305.256-1.727.769-.41.513-.615 1.31-.615 2.393v.512c0 2.108.781 3.162 2.342 3.162 1.583 0 2.375-1.054 2.375-3.162z"/></g><use xlink:href="#C" fill="#004fa3"/><use xlink:href="#C" fill="url(#A)"/><path d="M294.578 67.295l-5.635 1.51-6.647-24.804 5.636-1.51 6.646 24.804zm-2.3-19.375c-.309-1.152-.397-2.213-.265-3.183s.452-1.8.96-2.49c.518-.693 1.153-1.273 1.905-1.739.76-.48 1.635-.853 2.625-1.119s1.943-.371 2.858-.316c.912.044 1.752.252 2.521.623.779.368 1.461.93 2.044 1.685.594.752 1.036 1.672 1.328 2.76l.489 1.825-5.2 1.393-.463-1.728c-.199-.743-.505-1.261-.919-1.554s-.899-.365-1.459-.215c-.506.136-.879.403-1.118.801s-.284.878-.134 1.438a3.65 3.65 0 0 0 .427 1.011c.188.273.459.529.811.769l.959.539 1.347.574 3.313 1.38c1.41.568 2.582 1.304 3.516 2.208s1.602 2.104 2.003 3.6c.41 1.529.427 2.926.051 4.192-.369 1.253-1.023 2.276-1.964 3.071s-2.095 1.375-3.463 1.741c-2.088.56-3.984.439-5.687-.363-1.696-.815-2.819-2.251-3.37-4.307l-.575-2.148 5.296-1.419.515 1.922c.194.721.526 1.25.996 1.585.482.333 1.024.418 1.627.257.613-.164 1.048-.46 1.303-.886.252-.437.297-.957.136-1.56-.11-.409-.26-.755-.452-1.039-.18-.286-.459-.552-.836-.797a7.76 7.76 0 0 0-.999-.563l-1.434-.637-3.19-1.309c-1.41-.568-2.573-1.313-3.488-2.233-.919-.931-1.59-2.187-2.014-3.77zm34.923 8.834c-1.021 1.831-2.813 3.09-5.375 3.777s-4.748.494-6.559-.579c-1.813-1.083-3.098-3.035-3.854-5.856l-2.302-8.591c-.755-2.821-.618-5.148.414-6.982 1.029-1.845 2.824-3.111 5.387-3.797s4.744-.487 6.547.6c1.81 1.073 3.094 3.019 3.849 5.84l2.302 8.591c.756 2.821.62 5.153-.409 6.998zm-8.742-1.362c.57.447 1.264.561 2.082.342s1.357-.663 1.616-1.333c.27-.672.229-1.665-.123-2.979l-2.389-8.914c-.352-1.313-.812-2.194-1.382-2.641-.559-.45-1.248-.566-2.066-.346-.808.216-1.352.662-1.632 1.337-.27.672-.229 1.665.123 2.979l2.388 8.914c.352 1.313.813 2.194 1.383 2.641zm-17.267 41.492c.689 2.573.523 4.729-.5 6.469-1.014 1.726-2.674 2.897-4.978 3.514-1.388.373-2.708.443-3.958.213s-2.359-.793-3.325-1.688c-.97-.905-1.654-2.101-2.052-3.587l-.281-1.049 5.458-1.463.195.727c.461 1.722 1.354 2.406 2.678 2.051 1.432-.383 1.867-1.625 1.304-3.724l-.973-3.633c-.6 1.465-1.713 2.415-3.339 2.85a5.74 5.74 0 0 1-4.724-.707c-1.462-.935-2.49-2.512-3.084-4.729l-.381-1.421c-.643-2.401-.444-4.456.598-6.166 1.052-1.713 2.709-2.872 4.97-3.478 2.293-.614 4.319-.419 6.077.587 1.755.995 2.974 2.768 3.658 5.32l2.657 9.915zm-8.029-8.13l-.13-.484c-.533-1.992-1.548-2.787-3.045-2.386-.689.185-1.168.573-1.436 1.164-.258.588-.25 1.394.024 2.417l.13.484c.534 1.992 1.538 2.79 3.013 2.395 1.496-.401 1.978-1.597 1.444-3.589zm25.776 9.64c-.949 1.755-2.63 2.955-5.041 3.601s-4.472.449-6.182-.593c-1.7-1.045-2.913-2.924-3.64-5.637l-2.483-9.269c-.727-2.713-.616-4.947.333-6.701.96-1.757 2.646-2.959 5.057-3.605s4.467-.447 6.166.598c1.71 1.042 2.929 2.919 3.656 5.632l2.483 9.269c.727 2.713.611 4.948-.349 6.705zm-8.179-1.651c.496.386 1.099.484 1.809.294s1.179-.575 1.404-1.155c.237-.582.203-1.439-.1-2.569l-2.57-9.592c-.303-1.13-.702-1.889-1.198-2.275s-1.094-.486-1.793-.298-1.168.573-1.404 1.155-.203 1.439.1 2.569l2.57 9.592c.303 1.13.697 1.89 1.182 2.279zm26.362-3.221c-.949 1.754-2.629 2.955-5.041 3.601s-4.472.448-6.182-.594c-1.699-1.045-2.912-2.924-3.639-5.637l-2.484-9.269c-.727-2.713-.616-4.947.333-6.701.96-1.757 2.646-2.959 5.058-3.605s4.467-.447 6.166.598c1.71 1.042 2.928 2.919 3.655 5.632l2.484 9.269c.727 2.713.61 4.948-.35 6.705zm-8.179-1.651c.496.386 1.099.484 1.81.294s1.178-.575 1.404-1.155c.236-.583.203-1.439-.1-2.569l-2.57-9.592c-.303-1.13-.703-1.889-1.199-2.275s-1.093-.486-1.793-.298-1.168.573-1.404 1.155-.203 1.439.1 2.569l2.57 9.592c.303 1.13.697 1.89 1.182 2.279zm13.346-23.186l-.355-1.324 5.458-1.462 6.646 24.804-5.619 1.506-4.236-15.809-4.199 1.125-1.125-4.199.985-.264c1.184-.317 1.968-.816 2.351-1.495.391-.693.423-1.654.094-2.881z" fill="#fff"/><rect x="128.564" y="191.282" width="90.909" height="90.909" rx="6.452" transform="rotate(135 128.564 191.282)" fill="#ff833d"/><path d="M33.517 183.947v-.914h3.769v17.126h-3.88v-10.916h-2.899v-2.899h.68c.818 0 1.409-.186 1.773-.557.372-.379.557-.993.557-1.84zm19.111 11.875c0 .981-.238 1.832-.714 2.553-.476.714-1.108 1.249-1.895 1.606-.78.349-1.661.524-2.643.524s-1.866-.175-2.654-.524a4.44 4.44 0 0 1-1.884-1.606c-.476-.721-.714-1.572-.714-2.553v-1.372h3.646v.915c0 1.219.535 1.828 1.606 1.828 1.063 0 1.595-.624 1.595-1.873v-.524c0-1.204-.61-1.806-1.829-1.806h-1.137v-3.133h1.137c1.018 0 1.528-.584 1.528-1.751v-.624c0-.989-.431-1.483-1.293-1.483-.87 0-1.305.472-1.305 1.416v.825h-3.657v-.959c0-1.487.465-2.624 1.394-3.412s2.118-1.182 3.568-1.182c.929 0 1.762.164 2.498.491.736.319 1.327.814 1.773 1.483.453.661.68 1.449.68 2.363v.803c0 1.435-.587 2.524-1.762 3.267 1.375.803 2.063 1.996 2.063 3.579v1.149zm7.091-4.226c-.684 0-1.107.305-1.271.914h-3.434v-9.477h9.02v3.311h-5.586v2.944a2.86 2.86 0 0 1 2.007-.77c1.368 0 2.401.417 3.1 1.249.706.825 1.059 2.044 1.059 3.658v1.962c0 1.093-.223 2.033-.669 2.821-.446.78-1.033 1.36-1.762 1.739-.729.372-1.55.558-2.464.558-1.427 0-2.605-.431-3.534-1.294-.929-.869-1.394-2.077-1.394-3.623v-.915h3.535v.58c0 .691.119 1.189.357 1.494.238.298.584.446 1.037.446.416 0 .743-.148.981-.446.245-.297.368-.751.368-1.36v-1.829c0-1.308-.45-1.962-1.349-1.962zm22.479 7.281h-.223v1.505h-3.891v-1.505h-.223c-1.948 0-3.404-.513-4.371-1.539-.966-1.033-1.45-2.468-1.45-4.304v-2.921c0-1.896.494-3.338 1.483-4.326.996-.996 2.442-1.494 4.337-1.494h.223v-1.483h3.891v1.483h.223c1.895 0 3.338.498 4.326 1.494.996.988 1.494 2.43 1.494 4.326v2.921c0 1.836-.483 3.271-1.449 4.304-.966 1.026-2.423 1.539-4.371 1.539zm-.045-11.462h-.178v8.34h.245c.676 0 1.163-.193 1.461-.58.305-.386.457-1.015.457-1.884v-3.412c0-.929-.164-1.572-.491-1.929s-.825-.535-1.494-.535zm-4.315 8.34h.245v-8.34h-.178c-.669 0-1.167.178-1.494.535-.327.349-.491.992-.491 1.929v3.412c0 .862.149 1.49.446 1.884.297.387.788.58 1.472.58zm22.713-.167c0 .817-.141 1.546-.424 2.185-.275.632-.661 1.145-1.159 1.539a5.12 5.12 0 0 1-1.706.892 7.1 7.1 0 0 1-2.107.301c-.788 0-1.517-.101-2.186-.301a5.76 5.76 0 0 1-1.773-.881c-.513-.387-.918-.896-1.215-1.528-.29-.631-.435-1.353-.435-2.163v-1.405h3.88v.959c0 .692.149 1.201.446 1.528.305.319.702.479 1.193.479 1.07 0 1.606-.687 1.606-2.063v-.356c0-.61-.119-1.063-.357-1.361s-.624-.446-1.16-.446h-1.94v-3.222h1.895c.424 0 .74-.138.948-.413.208-.282.312-.732.312-1.349v-.29c0-1.129-.45-1.694-1.349-1.694-.974 0-1.461.572-1.461 1.717v.847h-3.88v-.914c0-.833.138-1.569.413-2.208.282-.647.669-1.167 1.16-1.561a5.16 5.16 0 0 1 1.684-.892c.632-.201 1.319-.301 2.063-.301.714 0 1.375.093 1.985.279a5.04 5.04 0 0 1 1.628.803c.476.356.847.828 1.115 1.416.275.579.412 1.241.412 1.984v.435c0 1.465-.509 2.598-1.527 3.401 1.293.833 1.94 2.104 1.94 3.813v.77z" fill="#000"/><defs><linearGradient id="A" x1="312.5" y1="0" x2="312.5" y2="135" gradientUnits="userSpaceOnUse"><stop stop-color="#42ff55" stop-opacity=".7"/><stop offset="1" stop-color="#fff" stop-opacity="0"/></linearGradient><path id="B" d="M199.251 184v-1.74c-.637 1.303-1.812 1.955-3.523 1.955-.602 0-1.161-.108-1.676-.322-.509-.215-.938-.563-1.289-1.042-.344-.487-.516-1.071-.516-1.751 0-.545.097-1.017.29-1.418.201-.409.458-.72.774-.935a4.94 4.94 0 0 1 1.095-.559c.408-.157.824-.264 1.246-.322l1.257-.204 1.085-.215c.322-.071.58-.186.774-.343.2-.165.3-.373.3-.624a.97.97 0 0 0-.408-.827c-.265-.2-.612-.3-1.042-.3-.501 0-.884.128-1.149.386-.258.251-.387.613-.387 1.085h-3.523c0-.566.096-1.078.29-1.536s.454-.841.784-1.149.72-.566 1.171-.774a5.92 5.92 0 0 1 1.428-.44c.495-.093 1.014-.14 1.558-.14a8.63 8.63 0 0 1 1.525.129c.487.086.946.226 1.375.419s.799.433 1.107.72.551.644.73 1.074c.187.422.28.895.28 1.418V184h-3.556zm-3.352-3.255c0 .315.115.555.344.72s.519.247.87.247c.595 0 1.075-.168 1.44-.505.372-.337.558-.813.558-1.429v-.666c-.257.136-.598.258-1.02.366l-1.074.257a2.02 2.02 0 0 0-.785.355c-.222.165-.333.383-.333.655z"/><path id="C" d="M296.826 12.109a25.64 25.64 0 0 1 31.348 0h0c3.606 2.786 7.89 4.561 12.41 5.14h0a25.64 25.64 0 0 1 22.167 22.166h0c.58 4.52 2.354 8.804 5.14 12.41h0a25.64 25.64 0 0 1 0 31.348h0c-2.786 3.606-4.56 7.89-5.14 12.41h0a25.64 25.64 0 0 1-22.167 22.167h0c-4.52.58-8.804 2.354-12.41 5.14h0a25.64 25.64 0 0 1-31.348 0h0c-3.606-2.786-7.89-4.56-12.41-5.14h0a25.64 25.64 0 0 1-22.167-22.166h0c-.58-4.52-2.354-8.804-5.14-12.41h0a25.64 25.64 0 0 1 0-31.348h0c2.786-3.606 4.56-7.89 5.14-12.41h0a25.64 25.64 0 0 1 22.167-22.166h0c4.52-.58 8.804-2.354 12.41-5.14h0z"/></defs></svg>