<svg fill="none" xmlns="http://www.w3.org/2000/svg" viewBox="0 0 180 19">
  <path d="M18.7 9.5c0 5.2-4.2 9.4-9.3 9.4A9.4 9.4 0 010 9.5C0 4.2 4.2 0 9.4 0c5.1 0 9.3 4.2 9.3 9.5z" fill="#E2574C"/>
  <path d="M20.6 0c-2 0-4 .7-5.6 1.9l1 .8h-2l-.9 1h3.5l.7 1h-4.8l-.5 1h5.8l.5.9h-6.6l-.3 1h7.1l.2 1h-7.4v.9h7.4v1h-7.4l.1.9h7.1l-.2.9h-6.6l.3 1h5.8l-.5.9h-4.8l.6 1h3.5l-1 .9h-1.7A9.4 9.4 0 0030 9.5C30 4.2 25.8 0 20.6 0z" fill="#F4B459"/>
  <path d="M72.5 6c0 2.7 2.3 4.2 4 5 1.8 1 2.4 1.6 2.4 2.4 0 1.2-1.4 1.7-2.8 1.8-2.3 0-3.6-.7-4.7-1.2l-.8 4c1 .5 3 1 5.1 1 4.8 0 8-2.5 8-6.3 0-4.8-6.5-5.1-6.4-7.3 0-.6.6-1.3 2-1.5.6-.1 2.4-.2 4.5.8l.8-3.9a12 12 0 00-4.3-.8c-4.6 0-7.8 2.5-7.8 6zM92.3.4c-.8 0-1.6.6-2 1.4l-6.8 17h4.8l1-2.7h5.9l.5 2.7h4.3L96.3.3h-4zm.7 5l1.4 6.9h-3.8L93 5.3zM66.6.3l-3.8 18.4h4.6L71.2.3h-4.6zm-6.8 0L55 12.8 53 2.2C52.9 1 52 .3 51 .3H43L43 1c1.6.3 3.4 1 4.5 1.5.7.4 1 .7 1.1 1.6l3.7 14.7h4.9L64.6.3h-4.8" fill="url(#paint0_linear)"/>
  <path fill-rule="evenodd" clip-rule="evenodd" d="M161.3 8.6V19h5.8v-6.2h6.5c2.8 0 5.1-1.8 6-4.2h-18.3z" fill="#37A72E"/>
  <path fill-rule="evenodd" clip-rule="evenodd" d="M160.6 0c.3 4.3 4.3 7.6 9.2 7.6h10l.2-1.2C180 3 177 0 173.6 0h-13z" fill="url(#paint1_linear)"/>
  <path fill-rule="evenodd" clip-rule="evenodd" d="M152 7.5a.3.3 0 01.7.2v11.2h5.7V0h-5.7c-.8 0-1.6.6-2 1.2l-4.5 9.9v.1a.4.4 0 01-.8-.2V0h-5.7v18.9h5.7c.8 0 1.6-.6 1.9-1.2L152 7.5zM130.4 7.8L127.1 19h-4.2l-3.4-11c0-.2-.2-.4-.3-.4-.3 0-.4.2-.4.4v11H113V0h6.4c1.1 0 2.2.8 2.5 1.8l2.8 9.3c.2.4.4.4.5 0l2.9-9.3c.3-1 1.4-1.8 2.4-1.8h6.5v18.9h-5.8v-11a.4.4 0 00-.8 0z" fill="#37A72E"/>
  <defs>
    <linearGradient id="paint0_linear" x1="69.2052" y1="19.3811" x2="69.7728" y2="-0.131124" gradientUnits="userSpaceOnUse">
      <stop stop-color="#222357"/>
      <stop offset="1" stop-color="#254AA5"/>
    </linearGradient>
    <linearGradient id="paint1_linear" x1="160.554" y1="3.80964" x2="179.976" y2="3.80964" gradientUnits="userSpaceOnUse">
      <stop stop-color="#00A0E5"/>
      <stop offset="1" stop-color="#0077C3"/>
    </linearGradient>
  </defs>
</svg>
